PathFileType	4	(X/Y/Z)	/Users/itak/Documents/Research/Walk-IL/dataset/trc/00231_00009.trc
DataRate	CameraRate	NumFrames	NumMarkers	Units	OrigDataRate	OrigDataStartFrame	OrigNumFrames
100.000000	100.000000	4	53	mm	100.000000	728	833
Frame#	Time	RPSI			LPSI			L3			STRN			T10			C7			CLAV			RBAK			LBAK			LSHO			LUPA			LAEL			LAOL			LWTS			LWPS			LFRA			LIFD			LHPS			LHTS			RSHO			RUPA			RAEL			RAOL			RWTS			RWPS			RFRA			RIFD			RHTS			RHPS			RBHD			LFHD			RFHD			LBHD			LHIP			RHIP			RASI			LASI			LKNE			LTHI			LANK			LTIP			LTOE			LMT1			LMT5			LHEE			RKNE			RTHI			RANK			RTIP			RTOE			RMT1			RMT5			RHEE			
		X1	Y1	Z1	X2	Y2	Z2	X3	Y3	Z3	X4	Y4	Z4	X5	Y5	Z5	X6	Y6	Z6	X7	Y7	Z7	X8	Y8	Z8	X9	Y9	Z9	X10	Y10	Z10	X11	Y11	Z11	X12	Y12	Z12	X13	Y13	Z13	X14	Y14	Z14	X15	Y15	Z15	X16	Y16	Z16	X17	Y17	Z17	X18	Y18	Z18	X19	Y19	Z19	X20	Y20	Z20	X21	Y21	Z21	X22	Y22	Z22	X23	Y23	Z23	X24	Y24	Z24	X25	Y25	Z25	X26	Y26	Z26	X27	Y27	Z27	X28	Y28	Z28	X29	Y29	Z29	X30	Y30	Z30	X31	Y31	Z31	X32	Y32	Z32	X33	Y33	Z33	X34	Y34	Z34	X35	Y35	Z35	X36	Y36	Z36	X37	Y37	Z37	X38	Y38	Z38	X39	Y39	Z39	X40	Y40	Z40	X41	Y41	Z41	X42	Y42	Z42	X43	Y43	Z43	X44	Y44	Z44	X45	Y45	Z45	X46	Y46	Z46	X47	Y47	Z47	X48	Y48	Z48	X49	Y49	Z49	X50	Y50	Z50	X51	Y51	Z51	X52	Y52	Z52	X53	Y53	Z53	

729	7.28	-303.6532897949219	1052.6611328125	660.6117553710938	-266.0421752929688	1058.255004882812	546.33642578125	-282.8408203125	1132.11962890625	586.0601806640625	-52.35047149658203	1329.443603515625	656.9716186523438	-297.2127075195312	1259.166625976562	588.2279663085938	-244.173583984375	1522.871704101562	597.6636352539062	-81.61692047119141	1446.356567382812	650.075927734375	-331.9143371582031	1382.423461914062	653.19921875	-227.7993774414062	1483.347778320312	486.2984313964844	-125.1817092895508	1486.359497070312	459.7313232421875	-126.5435791015625	1366.69189453125	376.0411987304688	-102.8151702880859	1155.12451171875	359.6933898925781	-185.5671539306641	1138.244140625	384.7060852050781	-29.04913139343262	923.3080444335938	445.6466979980469	-28.25349617004395	906.5171508789062	363.1507568359375	-75.67642211914062	1048.299072265625	355.3450317382812	-26.4924144744873	728.1609497070312	438.8364562988281	-14.58234024047852	817.8607177734375	372.3492431640625	7.941774845123291	820.9844970703125	436.83154296875	-233.1906585693359	1488.739379882812	779.4954223632812	-266.8666381835938	1425.843383789062	843.0643310546875	-287.1751403808594	1145.640747070312	891.0888671875	-299.6513366699219	1133.51318359375	794.8365478515625	-135.9984130859375	937.14990234375	890.982421875	-200.9001922607422	922.0409545898438	942.50634765625	-261.686279296875	1078.7734375	912.4349365234375	-111.2008666992188	745.03857421875	897.98681640625	-95.20280456542969	819.4630126953125	921.2388916015625	-157.7809906005859	817.735595703125	957.0611572265625	-229.4266967773438	1677.242065429688	650.038330078125	-9.793052673339844	1731.05322265625	625.7119750976562	-43.39715576171875	1731.287841796875	719.9930419921875	-142.8849029541016	1685.156372070312	539.3395385742188	-127.7329788208008	995.8262939453125	443.0974426269531	-243.0542907714844	1012.778503417969	793.0299682617188	-139.7949523925781	1055.429809570312	785.621826171875	-46.51608276367188	1037.58251953125	520.8630981445312	-107.0402755737305	510.90673828125	502.3753051757812	-102.3416442871094	654.5243530273438	470.8066711425781	-200.6300659179688	37.65997695922852	490.2806091308594	-155.8153686523438	286.4928588867188	486.0591125488281	-29.15420722961426	45.10030746459961	628.8027954101562	-109.112419128418	40.40968322753906	637.9645385742188	-76.87973785400391	34.92293930053711	527.7625122070312	-277.7533264160156	46.18534469604492	511.4492797851562	-177.715576171875	521.6581420898438	782.5509643554688	-184.4446716308594	789.3631591796875	821.0961303710938	-254.0709075927734	34.31999588012695	747.7229614257812	-165.3252563476562	401.6017150878906	770.129150390625	-36.16726684570312	43.04414749145508	760.35986328125	-80.05073547363281	42.57748794555664	705.0919189453125	-155.6818237304688	35.42833709716797	801.505859375	-298.142822265625	34.12813186645508	675.1065673828125	
730	7.29	-303.1301574707031	1053.07470703125	662.0239868164062	-265.8203125	1058.693603515625	547.6506958007812	-282.4254150390625	1132.373779296875	587.4736328125	-51.62068176269531	1329.359985351562	658.0774536132812	-296.617431640625	1259.458129882812	589.8092651367188	-243.2676696777344	1523.077026367188	599.2094116210938	-80.74002838134766	1446.291381835938	651.3117065429688	-331.0743103027344	1382.645385742188	654.7742309570312	-227.1088714599609	1483.642944335938	487.8092041015625	-124.4910354614258	1486.495849609375	461.0604553222656	-126.3825149536133	1366.901977539062	377.2332153320312	-103.7084655761719	1155.310180664062	360.3713989257812	-186.3619232177734	1138.8154296875	385.7838439941406	-31.38497734069824	922.2960205078125	444.433837890625	-31.16218376159668	906.1126098632812	361.8359985351562	-77.38529968261719	1048.3671875	355.2979125976562	-31.35007476806641	727.1067504882812	436.1129455566406	-18.53279113769531	817.2090454101562	370.2711486816406	4.290915012359619	819.521728515625	434.6813659667969	-232.1866760253906	1488.799926757812	780.9705200195312	-265.8182067871094	1425.939453125	844.564208984375	-286.1121826171875	1145.77099609375	892.7650756835938	-298.4382629394531	1133.503540039062	796.4942016601562	-134.4570159912109	937.6967163085938	893.2733154296875	-199.4555511474609	922.436767578125	944.6019897460938	-260.5508728027344	1078.970825195312	914.2523193359375	-108.7980804443359	745.7269287109375	900.7794189453125	-93.27503204345703	820.2758178710938	923.9421997070312	-155.9862976074219	818.3436279296875	959.5241088867188	-228.6064605712891	1677.209228515625	651.5564575195312	-9.07316780090332	1731.321533203125	627.1303100585938	-42.6431770324707	1731.472412109375	721.419921875	-142.1286010742188	1685.299926757812	540.7947998046875	-127.8188400268555	996.02685546875	444.0847473144531	-242.3012542724609	1012.846618652344	794.2291259765625	-138.9797668457031	1055.241088867188	786.64892578125	-46.3934326171875	1037.65234375	521.6014404296875	-106.4803924560547	511.0823059082031	502.9969177246094	-102.2772598266602	654.6971435546875	471.4423522949219	-200.8787536621094	37.80546188354492	490.6104125976562	-155.5897827148438	286.6485595703125	486.5995178222656	-28.90693855285645	45.69184875488281	628.2890014648438	-108.7555999755859	40.62950897216797	637.8699340820312	-76.95696258544922	34.94437026977539	527.6798095703125	-277.9611206054688	46.3930549621582	512.04931640625	-178.3902130126953	521.5755615234375	782.8017578125	-184.0548553466797	789.26904296875	821.7203369140625	-254.1229248046875	34.29153823852539	747.7296142578125	-165.951416015625	401.6508483886719	770.2681274414062	-36.19492340087891	43.05253982543945	760.29833984375	-80.07060241699219	42.55763244628906	705.0512084960938	-155.6716003417969	35.43666076660156	801.4880981445312	-298.2420349121094	34.02973556518555	675.1510009765625	
731	7.3	-302.6575622558594	1053.483764648438	663.321533203125	-265.6317443847656	1059.107055664062	548.8479614257812	-282.0589904785156	1132.651977539062	588.7775268554688	-50.91392135620117	1329.26806640625	659.0884399414062	-296.0388793945312	1259.771728515625	591.2999877929688	-242.3731231689453	1523.292602539062	600.7041625976562	-79.86679840087891	1446.2265625	652.46484375	-330.2234802246094	1382.879760742188	656.2801513671875	-226.4544219970703	1483.961669921875	489.2652893066406	-123.8283767700195	1486.648559570312	462.3233032226562	-126.2383499145508	1367.14453125	378.3560791015625	-104.5395889282227	1155.541015625	360.9955139160156	-187.10009765625	1139.402221679688	386.765869140625	-33.58857727050781	921.4277954101562	443.28271484375	-33.87653732299805	905.8255615234375	360.5957336425781	-78.96849822998047	1048.502685546875	355.2462463378906	-35.91680908203125	726.2283935546875	433.5388793945312	-22.2177906036377	816.7111206054688	368.312744140625	0.8304216861724854	818.254638671875	432.6488342285156	-231.1708374023438	1488.851928710938	782.3931274414062	-264.7369079589844	1426.030639648438	846.005126953125	-285.0690307617188	1145.889038085938	894.3477172851562	-297.1977844238281	1133.504150390625	798.0574951171875	-132.9708251953125	938.2022705078125	895.5118408203125	-198.0977020263672	922.803955078125	946.6165771484375	-259.4620971679688	1079.158813476562	915.9835815429688	-106.524169921875	746.381103515625	903.5000610351562	-91.45294189453125	821.03857421875	926.5993041992188	-154.3260345458984	818.9125366210938	961.9048461914062	-227.7793731689453	1677.169799804688	653.0088500976562	-8.334020614624023	1731.560913085938	628.499755859375	-41.87968826293945	1731.631469726562	722.7982788085938	-141.350341796875	1685.431884765625	542.1930541992188	-127.9469451904297	996.197021484375	444.955322265625	-241.6023406982422	1012.935241699219	795.3140869140625	-138.1981353759766	1055.065063476562	787.560302734375	-46.31949615478516	1037.7275390625	522.218994140625	-105.856330871582	511.2511596679688	503.6181030273438	-102.1453552246094	654.850830078125	472.100341796875	-201.1025543212891	37.94778060913086	490.9433288574219	-155.3087921142578	286.7794494628906	487.135986328125	-28.65180397033691	46.22808456420898	627.8396606445312	-108.4312057495117	40.82049942016602	637.8125	-77.03232574462891	34.97091674804688	527.6032104492188	-278.1802062988281	46.6170768737793	512.6346435546875	-179.0388793945312	521.5035400390625	783.002685546875	-183.6293487548828	789.1976928710938	822.2265014648438	-254.1626586914062	34.2703857421875	747.7399291992188	-166.5786895751953	401.7065734863281	770.3636474609375	-36.22527313232422	43.06389236450195	760.2366333007812	-80.08931732177734	42.53996658325195	705.0123901367188	-155.6576080322266	35.44898223876953	801.4649658203125	-298.3280639648438	33.93662643432617	675.1961669921875	
732	7.31	-302.2320861816406	1053.876342773438	664.5001220703125	-265.4633178710938	1059.49072265625	549.9273681640625	-281.7264099121094	1132.946899414062	589.9738159179688	-50.22481155395508	1329.16796875	659.99951171875	-295.473388671875	1260.097900390625	592.6978759765625	-241.4974365234375	1523.51220703125	602.1463623046875	-79.00217437744141	1446.162475585938	653.5316162109375	-329.3778686523438	1383.123168945312	657.728271484375	-225.8434753417969	1484.295532226562	490.6657409667969	-123.2056350708008	1486.818115234375	463.5141906738281	-126.1270446777344	1367.41796875	379.404541015625	-105.3208618164062	1155.811279296875	361.5628051757812	-187.796142578125	1139.996826171875	387.6627502441406	-35.64080810546875	920.7010498046875	442.1956481933594	-36.39669418334961	905.6473999023438	359.4298095703125	-80.43965911865234	1048.697509765625	355.1877746582031	-40.16547775268555	725.5184936523438	431.1241760253906	-25.6284294128418	816.3560180664062	366.4778137207031	-2.391681671142578	817.1824951171875	430.73583984375	-230.1312408447266	1488.88818359375	783.7578125	-263.6176452636719	1426.112915039062	847.3861694335938	-284.0371398925781	1145.995361328125	895.8489379882812	-295.9412841796875	1133.510375976562	799.5430297851562	-131.5410614013672	938.6535034179688	897.6797485351562	-196.8200378417969	923.1337890625	948.5477905273438	-258.4091186523438	1079.333374023438	917.6345825195312	-104.4004898071289	746.9873657226562	906.1224365234375	-89.73836517333984	821.7369384765625	929.1813354492188	-152.7918701171875	819.427978515625	964.1900024414062	-226.9474334716797	1677.116333007812	654.3892211914062	-7.582744121551514	1731.772338867188	629.81591796875	-41.10944747924805	1731.762084960938	724.1253051757812	-140.5607452392578	1685.553100585938	543.5315551757812	-128.1128234863281	996.3421020507812	445.7069091796875	-240.9654235839844	1013.0390625	796.2828979492188	-137.4583435058594	1054.905517578125	788.35791015625	-46.27616882324219	1037.803955078125	522.72802734375	-105.2085876464844	511.4093627929688	504.2270812988281	-101.9627990722656	654.9827270507812	472.7607116699219	-201.2924499511719	38.08196640014648	491.2764282226562	-154.994384765625	286.8860778808594	487.6597290039062	-28.39559745788574	46.69190979003906	627.4606323242188	-108.1361312866211	40.97616958618164	637.7938232421875	-77.10345458984375	35.00359725952148	527.5375366210938	-278.389892578125	46.83695220947266	513.2084350585938	-179.6793365478516	521.4415283203125	783.1563720703125	-183.2061157226562	789.1399536132812	822.6314086914062	-254.1909637451172	34.25508499145508	747.7528686523438	-167.2124481201172	401.7683410644531	770.4136352539062	-36.25718688964844	43.07861709594727	760.1773681640625	-80.10575866699219	42.52446365356445	704.9774169921875	-155.6410522460938	35.46513748168945	801.4374389648438	-298.4007873535156	33.85361862182617	675.239501953125	
